# xmcd
#
# Track frame offsets:
#	150
#	27182
#	48230
#	54616
#	75977
#	114590
#	138583
#	179804
#	193142
#	229813
#	252388
#	265095
#
# Disc length: 4030 seconds
#
# Revision: 1
# Processed by: cddbd v1.5.1PL2 Copyright (c) Steve Scherf et al.
# Submitted via: EasyCDDAExtractor 9.0.0.1
#
DISCID=a80fbc0c
DTITLE=Guns and Roses - Papp László Sportarena Budapest 31-05-06 Disc 2
DYEAR=2006
DGENRE=Hard Rock
TTITLE0=Jam - Piano Solo [Dizzy]
TTITLE1=The Blues
TTITLE2=Jam
TTITLE3=Out Ta Get Me
TTITLE4=Knockin' On Heaven's Door
TTITLE5=My Michelle
TTITLE6=November Rain
TTITLE7=Ancient Hungarian Folk Song
TTITLE8=Nightrain
TTITLE9=Guitar Solo [Bumblefoot]
TTITLE10=Guitar Solo [Robin]
TTITLE11=Paradise City
EXTD=
EXTT0=
EXTT1=
EXTT2=
EXTT3=
EXTT4=
EXTT5=
EXTT6=
EXTT7=
EXTT8=
EXTT9=
EXTT10=
EXTT11=
PLAYORDER=
